<?xml version="1.0" encoding="iso-8859-1"?>
<!-- Generator: Adobe Illustrator 19.0.0, SVG Export Plug-In . SVG Version: 6.00 Build 0)  -->
<svg version="1.1" id="Layer_1"
	xmlns="http://www.w3.org/2000/svg"
	xmlns:xlink="http://www.w3.org/1999/xlink" x="0px" y="0px" viewBox="0 0 490 490" style="enable-background:new 0 0 490 490;" xml:space="preserve">
	<g>
		<g id="XMLID_25_">
			<g>
				<polygon style="fill:#AFB6BB;" points="430,100 340,100 340,10 			"/>
				<path style="fill:#FFFFFF;" d="M430,100v380H60V10h280v90H430z M200,335c55.195,0,100-44.805,100-100c0-55.2-44.805-100-100-100
				s-100,44.8-100,100C100,290.195,144.805,335,200,335z"/>
				<path style="fill:#31C0D8;" d="M300,235H200V135C255.195,135,300,179.8,300,235z"/>
				<path style="fill:#FFD248;" d="M200,235h100c0,55.195-44.805,100-100,100s-100-44.805-100-100c0-55.2,44.805-100,100-100V235z"/>
			</g>
			<g>
				<path style="fill:#231F20;" d="M439.976,100c-0.001-2.601-0.992-5.159-2.904-7.071l-90-90c-1.913-1.912-4.47-2.904-7.071-2.904V0
				H60c-5.522,0-10,4.477-10,10v470c0,5.523,4.478,10,10,10h370c5.522,0,10-4.477,10-10V100H439.976z M350,34.142L405.857,90H350
				V34.142z M70,470V20h260v80c0,5.523,4.478,10,10,10h80v360H70z"/>
				<rect x="100" y="45" style="fill:#231F20;" width="60" height="20"/>
				<rect x="100" y="80" style="fill:#231F20;" width="120" height="20"/>
				<rect x="100" y="380" style="fill:#231F20;" width="300" height="20"/>
				<rect x="100" y="420" style="fill:#231F20;" width="255" height="20"/>
				<path style="fill:#231F20;" d="M200,345c60.654,0,110-49.346,110-110s-49.346-110-110-110S90,174.346,90,235S139.346,345,200,345
				z M289.441,225H210v-79.441C251.652,150.185,284.815,183.348,289.441,225z M190,145.559V235c0,5.523,4.477,10,10,10h89.441
				c-4.99,44.936-43.195,80-89.441,80c-49.626,0-90-40.374-90-90C110,188.754,145.064,150.549,190,145.559z"/>
				<rect x="335" y="150" style="fill:#231F20;" width="65" height="20"/>
				<rect x="335" y="190" style="fill:#231F20;" width="65" height="20"/>
				<rect x="335" y="230" style="fill:#231F20;" width="65" height="20"/>
				<rect x="335" y="270" style="fill:#231F20;" width="65" height="20"/>
				<rect x="380" y="310" style="fill:#231F20;" width="20" height="20"/>
				<rect x="350" y="310" style="fill:#231F20;" width="20" height="20"/>
				<rect x="320" y="310" style="fill:#231F20;" width="20" height="20"/>
			</g>
		</g>
	</g>
	<g>
	</g>
	<g>
	</g>
	<g>
	</g>
	<g>
	</g>
	<g>
	</g>
	<g>
	</g>
	<g>
	</g>
	<g>
	</g>
	<g>
	</g>
	<g>
	</g>
	<g>
	</g>
	<g>
	</g>
	<g>
	</g>
	<g>
	</g>
	<g>
	</g>
</svg>
